<svg width="120" height="78" viewBox="0 0 120 78" fill="none" xmlns="http://www.w3.org/2000/svg">
<g id="&#208;&#155;&#208;&#190;&#208;&#179;&#208;&#190;">
<path id="&#208;&#167;&#208;&#176;&#209;&#129;&#209;&#130;&#208;&#189;&#209;&#139;&#208;&#185; &#208;&#191;&#209;&#129;&#208;&#184;&#209;&#133;&#208;&#190;&#208;&#187;&#208;&#190;&#208;&#179;" d="M6.314 64.06H7.294V74H6.314V69.674C5.95933 69.8233 5.586 69.9353 5.194 70.01C4.802 70.0847 4.33067 70.122 3.78 70.122C3.20133 70.122 2.71133 70.0427 2.31 69.884C1.90867 69.716 1.582 69.4873 1.33 69.198C1.08733 68.8993 0.91 68.54 0.798 68.12C0.686 67.7 0.63 67.2287 0.63 66.706V64.06H1.61V66.524C1.61 67.0187 1.64733 67.4387 1.722 67.784C1.806 68.1293 1.93667 68.4093 2.114 68.624C2.30067 68.8387 2.53867 68.9973 2.828 69.1C3.11733 69.1933 3.47667 69.24 3.906 69.24C4.438 69.24 4.914 69.1887 5.334 69.086C5.76333 68.974 6.09 68.834 6.314 68.666V64.06ZM11.3742 74.14C11.0289 74.14 10.7069 74.084 10.4082 73.972C10.1189 73.8507 9.86223 73.6873 9.63823 73.482C9.42357 73.2767 9.25557 73.0387 9.13423 72.768C9.0129 72.488 8.95223 72.1893 8.95223 71.872C8.95223 71.5547 9.0269 71.2607 9.17623 70.99C9.32557 70.7193 9.53557 70.486 9.80623 70.29C10.0769 70.094 10.3989 69.9447 10.7722 69.842C11.1456 69.73 11.5562 69.674 12.0042 69.674C12.3776 69.674 12.7556 69.7067 13.1382 69.772C13.5209 69.8373 13.8616 69.9307 14.1602 70.052V69.394C14.1602 68.75 13.9782 68.2413 13.6142 67.868C13.2502 67.4853 12.7462 67.294 12.1022 67.294C11.7289 67.294 11.3462 67.3687 10.9542 67.518C10.5622 67.6673 10.1656 67.882 9.76423 68.162L9.42823 67.532C10.3709 66.8973 11.2856 66.58 12.1722 66.58C13.0869 66.58 13.8056 66.8367 14.3282 67.35C14.8509 67.8633 15.1122 68.5727 15.1122 69.478V72.768C15.1122 73.0293 15.2289 73.16 15.4622 73.16V74C15.3036 74.028 15.1822 74.042 15.0982 74.042C14.8556 74.042 14.6642 73.9813 14.5242 73.86C14.3936 73.7387 14.3236 73.5707 14.3142 73.356L14.2862 72.782C13.9502 73.2207 13.5256 73.5567 13.0122 73.79C12.5082 74.0233 11.9622 74.14 11.3742 74.14ZM11.5982 73.412C12.0929 73.412 12.5456 73.3187 12.9562 73.132C13.3762 72.9453 13.6936 72.698 13.9082 72.39C13.9922 72.306 14.0529 72.2173 14.0902 72.124C14.1369 72.0213 14.1602 71.928 14.1602 71.844V70.654C13.8429 70.5327 13.5116 70.4393 13.1662 70.374C12.8302 70.3087 12.4849 70.276 12.1302 70.276C11.4582 70.276 10.9122 70.416 10.4922 70.696C10.0722 70.976 9.86223 71.3447 9.86223 71.802C9.86223 72.026 9.90423 72.236 9.98823 72.432C10.0816 72.628 10.2029 72.8007 10.3522 72.95C10.5109 73.09 10.6976 73.202 10.9122 73.286C11.1269 73.37 11.3556 73.412 11.5982 73.412ZM16.6788 70.332C16.6788 69.8187 16.7675 69.3333 16.9448 68.876C17.1221 68.4187 17.3695 68.022 17.6868 67.686C18.0135 67.3407 18.4008 67.07 18.8488 66.874C19.2968 66.678 19.7915 66.58 20.3328 66.58C21.0235 66.58 21.6255 66.7387 22.1388 67.056C22.6521 67.364 23.0395 67.784 23.3008 68.316L22.3768 68.61C22.1715 68.2367 21.8821 67.9473 21.5088 67.742C21.1448 67.5273 20.7388 67.42 20.2908 67.42C19.9175 67.42 19.5675 67.4947 19.2408 67.644C18.9235 67.7933 18.6435 67.9987 18.4008 68.26C18.1675 68.512 17.9808 68.8153 17.8408 69.17C17.7101 69.5247 17.6448 69.912 17.6448 70.332C17.6448 70.7427 17.7148 71.13 17.8548 71.494C17.9948 71.858 18.1861 72.1753 18.4288 72.446C18.6715 72.7073 18.9515 72.9173 19.2688 73.076C19.5955 73.2253 19.9408 73.3 20.3048 73.3C20.5381 73.3 20.7668 73.2673 20.9908 73.202C21.2241 73.1367 21.4388 73.048 21.6348 72.936C21.8308 72.8147 21.9988 72.6793 22.1388 72.53C22.2788 72.3807 22.3768 72.222 22.4328 72.054L23.3708 72.334C23.2681 72.5953 23.1188 72.838 22.9228 73.062C22.7268 73.2767 22.4935 73.468 22.2228 73.636C21.9615 73.7947 21.6675 73.916 21.3408 74C21.0235 74.0933 20.6921 74.14 20.3468 74.14C19.8148 74.14 19.3248 74.042 18.8768 73.846C18.4288 73.6407 18.0415 73.3653 17.7148 73.02C17.3881 72.6653 17.1315 72.2593 16.9448 71.802C16.7675 71.3447 16.6788 70.8547 16.6788 70.332ZM27.5964 74H26.6724V67.532H24.1104V66.706H30.1584V67.532H27.5964V74ZM32.4493 69.856H36.5373V66.706H37.4753V74H36.5373V70.654H32.4493V74H31.5113V66.706H32.4493V69.856ZM39.605 66.706H40.543V69.296H42.125C42.461 69.296 42.7783 69.3473 43.077 69.45C43.3757 69.5527 43.637 69.702 43.861 69.898C44.085 70.094 44.2623 70.3413 44.393 70.64C44.5237 70.9293 44.589 71.2653 44.589 71.648C44.589 72.0307 44.5237 72.3713 44.393 72.67C44.2623 72.9593 44.085 73.202 43.861 73.398C43.637 73.594 43.3757 73.7433 43.077 73.846C42.7783 73.9487 42.461 74 42.125 74H39.605V66.706ZM45.499 66.706H46.423V74H45.499V66.706ZM42.125 73.188C42.6103 73.188 42.9837 73.0527 43.245 72.782C43.5157 72.502 43.651 72.124 43.651 71.648C43.651 71.172 43.5157 70.7987 43.245 70.528C42.9743 70.248 42.601 70.108 42.125 70.108H40.543V73.188H42.125ZM53.6284 63.976C53.6098 64.4147 53.4278 64.7507 53.0824 64.984C52.7464 65.208 52.2798 65.32 51.6824 65.32C51.0758 65.32 50.6044 65.208 50.2684 64.984C49.9324 64.7507 49.7504 64.4147 49.7224 63.976H50.3244C50.3431 64.2933 50.4644 64.5173 50.6884 64.648C50.9124 64.7693 51.2438 64.83 51.6824 64.83C52.1211 64.83 52.4478 64.7693 52.6624 64.648C52.8864 64.5267 53.0124 64.3027 53.0404 63.976H53.6284ZM49.4844 72.656L53.8384 66.706H54.6084V74H53.6704V68.162L49.4004 74H48.5464V66.706H49.4844V72.656ZM66.0442 74H65.1202V67.532H61.2422V74H60.3042V66.706H66.0442V74ZM67.6749 70.332C67.6749 69.8187 67.7636 69.3333 67.9409 68.876C68.1182 68.4187 68.3656 68.022 68.6829 67.686C69.0096 67.3407 69.3969 67.07 69.8449 66.874C70.2929 66.678 70.7876 66.58 71.3289 66.58C72.0196 66.58 72.6216 66.7387 73.1349 67.056C73.6482 67.364 74.0356 67.784 74.2969 68.316L73.3729 68.61C73.1676 68.2367 72.8782 67.9473 72.5049 67.742C72.1409 67.5273 71.7349 67.42 71.2869 67.42C70.9136 67.42 70.5636 67.4947 70.2369 67.644C69.9196 67.7933 69.6396 67.9987 69.3969 68.26C69.1636 68.512 68.9769 68.8153 68.8369 69.17C68.7062 69.5247 68.6409 69.912 68.6409 70.332C68.6409 70.7427 68.7109 71.13 68.8509 71.494C68.9909 71.858 69.1822 72.1753 69.4249 72.446C69.6676 72.7073 69.9476 72.9173 70.2649 73.076C70.5916 73.2253 70.9369 73.3 71.3009 73.3C71.5342 73.3 71.7629 73.2673 71.9869 73.202C72.2202 73.1367 72.4349 73.048 72.6309 72.936C72.8269 72.8147 72.9949 72.6793 73.1349 72.53C73.2749 72.3807 73.3729 72.222 73.4289 72.054L74.3669 72.334C74.2642 72.5953 74.1149 72.838 73.9189 73.062C73.7229 73.2767 73.4896 73.468 73.2189 73.636C72.9576 73.7947 72.6636 73.916 72.3369 74C72.0196 74.0933 71.6882 74.14 71.3429 74.14C70.8109 74.14 70.3209 74.042 69.8729 73.846C69.4249 73.6407 69.0376 73.3653 68.7109 73.02C68.3842 72.6653 68.1276 72.2593 67.9409 71.802C67.7636 71.3447 67.6749 70.8547 67.6749 70.332ZM76.8145 72.656L81.1685 66.706H81.9385V74H81.0005V68.162L76.7305 74H75.8765V66.706H76.8145V72.656ZM84.2476 66.706L86.4316 69.562L86.5436 69.772L86.6556 69.562L88.8396 66.706H89.8616L87.0756 70.374L89.8616 74H88.8396L86.6556 71.158L86.5436 70.962L86.4316 71.158L84.2476 74H83.2256L86.0116 70.374L83.2256 66.706H84.2476ZM93.9139 74.14C93.3819 74.14 92.8965 74.042 92.4579 73.846C92.0192 73.6407 91.6365 73.3653 91.3099 73.02C90.9925 72.6747 90.7452 72.2733 90.5679 71.816C90.3905 71.3587 90.3019 70.878 90.3019 70.374C90.3019 69.8607 90.3905 69.3753 90.5679 68.918C90.7545 68.4607 91.0065 68.0593 91.3239 67.714C91.6505 67.3687 92.0332 67.0933 92.4719 66.888C92.9105 66.6827 93.3912 66.58 93.9139 66.58C94.4365 66.58 94.9172 66.6827 95.3559 66.888C95.8039 67.0933 96.1865 67.3687 96.5039 67.714C96.8305 68.0593 97.0825 68.4607 97.2599 68.918C97.4465 69.3753 97.5399 69.8607 97.5399 70.374C97.5399 70.878 97.4512 71.3587 97.2739 71.816C97.0965 72.2733 96.8445 72.6747 96.5179 73.02C96.2005 73.3653 95.8179 73.6407 95.3699 73.846C94.9312 74.042 94.4459 74.14 93.9139 74.14ZM91.2679 70.388C91.2679 70.7987 91.3379 71.1813 91.4779 71.536C91.6179 71.8813 91.8045 72.1893 92.0379 72.46C92.2805 72.7213 92.5605 72.9267 92.8779 73.076C93.2045 73.2253 93.5499 73.3 93.9139 73.3C94.2779 73.3 94.6185 73.2253 94.9359 73.076C95.2625 72.9173 95.5472 72.7073 95.7899 72.446C96.0325 72.1753 96.2239 71.8627 96.3639 71.508C96.5039 71.1533 96.5739 70.7707 96.5739 70.36C96.5739 69.9587 96.5039 69.5807 96.3639 69.226C96.2239 68.862 96.0325 68.5493 95.7899 68.288C95.5472 68.0173 95.2625 67.8073 94.9359 67.658C94.6185 67.4993 94.2779 67.42 93.9139 67.42C93.5499 67.42 93.2092 67.4993 92.8919 67.658C92.5745 67.8073 92.2945 68.0173 92.0519 68.288C91.8092 68.5587 91.6179 68.876 91.4779 69.24C91.3379 69.5947 91.2679 69.9773 91.2679 70.388ZM97.9883 73.202C98.2496 73.1833 98.4783 73.1133 98.6743 72.992C98.8703 72.8613 99.0383 72.6327 99.1783 72.306C99.3276 71.97 99.4536 71.5127 99.5563 70.934C99.6683 70.3553 99.7756 69.604 99.8783 68.68L100.088 66.706H104.372V74H103.434V67.462H100.97L100.774 69.086C100.653 70.0567 100.518 70.8593 100.368 71.494C100.219 72.1193 100.042 72.6233 99.8363 73.006C99.6403 73.3793 99.4023 73.6453 99.1223 73.804C98.8423 73.9533 98.5156 74.0373 98.1423 74.056L97.9883 73.202ZM109.596 74.14C109.064 74.14 108.578 74.042 108.14 73.846C107.701 73.6407 107.318 73.3653 106.992 73.02C106.674 72.6747 106.427 72.2733 106.25 71.816C106.072 71.3587 105.984 70.878 105.984 70.374C105.984 69.8607 106.072 69.3753 106.25 68.918C106.436 68.4607 106.688 68.0593 107.006 67.714C107.332 67.3687 107.715 67.0933 108.154 66.888C108.592 66.6827 109.073 66.58 109.596 66.58C110.118 66.58 110.599 66.6827 111.038 66.888C111.486 67.0933 111.868 67.3687 112.186 67.714C112.512 68.0593 112.764 68.4607 112.942 68.918C113.128 69.3753 113.222 69.8607 113.222 70.374C113.222 70.878 113.133 71.3587 112.956 71.816C112.778 72.2733 112.526 72.6747 112.2 73.02C111.882 73.3653 111.5 73.6407 111.052 73.846C110.613 74.042 110.128 74.14 109.596 74.14ZM106.95 70.388C106.95 70.7987 107.02 71.1813 107.16 71.536C107.3 71.8813 107.486 72.1893 107.72 72.46C107.962 72.7213 108.242 72.9267 108.56 73.076C108.886 73.2253 109.232 73.3 109.596 73.3C109.96 73.3 110.3 73.2253 110.618 73.076C110.944 72.9173 111.229 72.7073 111.472 72.446C111.714 72.1753 111.906 71.8627 112.046 71.508C112.186 71.1533 112.256 70.7707 112.256 70.36C112.256 69.9587 112.186 69.5807 112.046 69.226C111.906 68.862 111.714 68.5493 111.472 68.288C111.229 68.0173 110.944 67.8073 110.618 67.658C110.3 67.4993 109.96 67.42 109.596 67.42C109.232 67.42 108.891 67.4993 108.574 67.658C108.256 67.8073 107.976 68.0173 107.734 68.288C107.491 68.5587 107.3 68.876 107.16 69.24C107.02 69.5947 106.95 69.9773 106.95 70.388ZM119.28 67.434H115.766V74H114.828V66.706H119.28V67.434Z" fill="#565B62"/>
<g id="&#208;&#155;&#208;&#190;&#208;&#179;&#208;&#190;_2">
<circle id="Ellipse 1" cx="67.5" cy="35.5" r="14.5" fill="#E89160"/>
<circle id="Ellipse 2" cx="46.5" cy="19.5" r="14.5" fill="url(#paint0_linear)"/>
<g id="Psi2 1">
<path id="path1873" fill-rule="evenodd" clip-rule="evenodd" d="M68.6523 43.6177V42.5595C68.6523 42.5595 65.3454 42.6256 64.4195 41.8981C63.4935 41.1706 62.8983 39.914 62.8983 37.996C62.8983 36.078 62.8983 31.9775 62.8983 31.9775C62.8983 31.9775 71.6946 31.0515 74.4724 28.2737C77.2501 25.496 78.0438 20.9986 78.0438 18.2208C78.0438 16.8319 78.0584 13.0989 78.0584 11.1474C78.0584 9.95548 78.269 7.83323 79.8867 7.83323C80.691 7.83323 81.9459 7.83723 81.9459 7.83723V6.44834C81.9459 6.44834 80.2263 6.3822 79.1681 6.3822C78.1099 6.3822 75.5636 6.54755 74.274 7.83723C72.9843 9.12691 72.1576 12.6653 72.1576 18.7499C72.1576 24.8346 71.6285 26.488 70.1073 28.0092C67.8253 30.2912 62.8983 30.4563 62.8983 30.4563C62.8983 30.4563 62.8983 15.1124 62.8983 12.996C62.8983 10.8796 62.8322 9.75522 63.8242 8.76315C64.8163 7.77109 68.1232 7.90337 68.1232 7.90337V6.3822H51.877V7.90337C51.877 7.90337 55.1838 7.77109 56.1759 8.76315C57.168 9.75522 57.1018 10.8796 57.1018 12.996C57.1018 15.1124 57.1018 30.4563 57.1018 30.4563C57.1018 30.4563 52.1748 30.2912 49.8928 28.0092C48.3717 26.488 47.8426 24.8346 47.8426 18.7499C47.8426 12.6653 47.0158 9.12692 45.7262 7.83724C44.4365 6.54756 41.8902 6.38221 40.832 6.38221C39.7738 6.38221 38.0542 6.44835 38.0542 6.44835V7.83724C38.0542 7.83724 39.3091 7.83324 40.1135 7.83324C41.7311 7.83324 41.9418 9.95549 41.9418 11.1474C41.9418 13.0989 41.9563 16.832 41.9563 18.2208C41.9563 20.9986 42.75 25.496 45.5277 28.2738C48.3055 31.0515 57.1018 31.9775 57.1018 31.9775C57.1018 31.9775 57.1018 36.078 57.1018 37.996C57.1018 39.914 56.5066 41.1706 55.5807 41.8981C54.6547 42.6256 51.3478 42.5595 51.3478 42.5595V43.6177" fill="#646C79"/>
</g>
</g>
</g>
<defs>
<linearGradient id="paint0_linear" x1="61" y1="22.5902" x2="31.9996" y2="22.6131" gradientUnits="userSpaceOnUse">
<stop stop-color="#4DC8C0"/>
<stop offset="1" stop-color="#56D0C9"/>
</linearGradient>
</defs>
</svg>
